Coordinates
version=1
nRows=38
nColumns=12
inDegrees=yes

Units are S.I. units (second, meters, Newtons, ...)
Angles are in degrees

endheader
time	SC_y	SC_z	SC_x	AC_y	AC_z	AC_x	GH_y	GH_z	GH_yy	EL_x	PS_y
       0.0              -59.68          26.64           19.1          31.52         -10.64          11.65          143.5          32.05          19.46          104.9          120.5
   0.01743              -59.68          26.64           19.1          31.53         -10.65          11.65          143.4          32.05          19.43          104.9          120.5
   0.03486              -59.68          26.63          19.11          31.53         -10.65          11.65          143.4          32.06          19.41          104.9          120.4
   0.05229              -59.68          26.63          19.11          31.54         -10.65          11.64          143.4          32.07          19.38          104.9          120.4
   0.06971              -59.68          26.63          19.11          31.54         -10.65          11.64          143.3          32.08          19.35          104.9          120.4
   0.08714              -59.68          26.62          19.11          31.55         -10.65          11.63          143.3          32.08          19.32          104.9          120.4
    0.1046              -59.68          26.62          19.11          31.55         -10.65          11.63          143.2          32.09          19.28          104.9          120.4
     0.122              -59.67          26.61          19.11          31.56         -10.65          11.62          143.2           32.1          19.25          104.9          120.3
    0.1394              -59.67          26.61          19.11          31.57         -10.66          11.61          143.2          32.11          19.21          105.0          120.3
    0.1569              -59.67           26.6          19.11          31.57         -10.66          11.61          143.1          32.12          19.17          105.0          120.3
    0.1743              -59.67          26.59          19.11          31.58         -10.66           11.6          143.1          32.14          19.12          105.0          120.3
    0.1917              -59.67          26.59          19.12          31.59         -10.66          11.59          143.0          32.15          19.08          105.0          120.2
    0.2091              -59.67          26.58          19.12           31.6         -10.67          11.59          142.9          32.16          19.02          105.0          120.2
    0.2266              -59.67          26.57          19.12          31.61         -10.67          11.58          142.9          32.18          18.97          105.0          120.2
     0.244              -59.66          26.56          19.12          31.62         -10.67          11.57          142.8          32.19          18.91          105.0          120.1
    0.2614              -59.66          26.56          19.12          31.63         -10.68          11.56          142.7          32.21          18.84          105.0          120.1
    0.2789              -59.66          26.55          19.12          31.65         -10.68          11.55          142.6          32.23          18.77          105.0          120.1
    0.2963              -59.66          26.53          19.13          31.66         -10.68          11.53          142.5          32.25           18.7          105.0          120.0
    0.3137              -59.65          26.52          19.13          31.68         -10.69          11.52          142.4          32.27          18.61          105.0          120.0
    0.3311              -59.65          26.51          19.13          31.69         -10.69          11.51          142.3           32.3          18.52          105.1          119.9
    0.3486              -59.65           26.5          19.13          31.71          -10.7          11.49          142.2          32.32          18.42          105.1          119.8
     0.366              -59.64          26.48          19.14          31.73          -10.7          11.47          142.1          32.35          18.31          105.1          119.8
    0.3834              -59.64          26.46          19.14          31.76         -10.71          11.45          141.9          32.39          18.19          105.1          119.7
    0.4009              -59.64          26.44          19.15          31.78         -10.72          11.43          141.8          32.42          18.05          105.1          119.6
    0.4183              -59.63          26.42          19.15          31.81         -10.73          11.41          141.6          32.46           17.9          105.2          119.5
    0.4357              -59.63           26.4          19.15          31.84         -10.73          11.38          141.4          32.51          17.73          105.2          119.4
    0.4531              -59.62          26.37          19.16          31.88         -10.74          11.35          141.1          32.56          17.54          105.2          119.3
    0.4706              -59.61          26.34          19.17          31.92         -10.75          11.32          140.9          32.62          17.33          105.3          119.2
     0.488              -59.61          26.31          19.17          31.96         -10.77          11.28          140.6          32.68          17.09          105.3          119.1
    0.5054               -59.6          26.27          19.18          32.01         -10.78          11.24          140.3          32.75          16.81          105.3          118.9
    0.5229              -59.59          26.23          19.19          32.07          -10.8          11.19          139.9          32.84           16.5          105.4          118.7
    0.5403              -59.58          26.18           19.2          32.14         -10.82          11.14          139.5          32.93          16.14          105.4          118.5
    0.5577              -59.56          26.12          19.21          32.21         -10.84          11.07          139.0          33.04          15.73          105.5          118.2
    0.5751              -59.55          26.05          19.23           32.3         -10.86           11.0          138.4          33.17          15.25          105.6          118.0
    0.5926              -59.53          25.97          19.24          32.41         -10.89          10.91          137.7          33.32          14.69          105.7          117.6
      0.61              -59.51          25.88          19.26          32.53         -10.93           10.8          136.9           33.5          14.03          105.8          117.2
    0.6274              -59.48          25.77          19.29          32.68         -10.97          10.68          136.0          33.71          13.24          105.9          116.8
    0.6449              -59.45          25.64          19.31          32.85         -11.02          10.53          134.8          33.96           12.3          106.1          116.2
